<svg xmlns="http://www.w3.org/2000/svg" viewBox="0 0 256 256" focusable="false" color="rgba(165, 165, 184, 0.22)" style="user-select: none; width: 100%; height: 100%; display: inline-block; fill: rgba(165, 165, 184, 0.22); color: rgba(165, 165, 184, 0.22); flex-shrink: 0;"><g color="rgba(165, 165, 184, 0.22)" weight="regular"><path d="M213.66,194.34a8,8,0,0,1-11.32,11.32L128,131.31,53.66,205.66a8,8,0,0,1-11.32-11.32l80-80a8,8,0,0,1,11.32,0Zm-160-68.68L128,51.31l74.34,74.35a8,8,0,0,0,11.32-11.32l-80-80a8,8,0,0,0-11.32,0l-80,80a8,8,0,0,0,11.32,11.32Z"/></g></svg>