<svg xmlns="http://www.w3.org/2000/svg" viewBox="0 0 256 256" focusable="false" color="rgba(222, 222, 222, 0.6)" style="user-select: none; width: 100%; height: 100%; display: inline-block; fill: rgba(222, 222, 222, 0.6); color: rgba(222, 222, 222, 0.6); flex-shrink: 0;"><g color="rgba(222, 222, 222, 0.6)" weight="regular"><path d="M216,32H88a8,8,0,0,0-8,8V80H40a8,8,0,0,0-8,8V216a8,8,0,0,0,8,8H168a8,8,0,0,0,8-8V176h40a8,8,0,0,0,8-8V40A8,8,0,0,0,216,32ZM160,208H48V96H160Zm48-48H176V88a8,8,0,0,0-8-8H96V48H208Z"/></g></svg>